<?xml version="1.0"?>
<svg xmlns="http://www.w3.org/2000/svg" xmlns:xlink="http://www.w3.org/1999/xlink" xmlns:svgjs="http://svgjs.com/svgjs" version="1.1" width="512" height="512" x="0" y="0" viewBox="0 0 510.017 510.017" style="enable-background:new 0 0 512 512" xml:space="preserve" class=""><g><g xmlns="http://www.w3.org/2000/svg"><path d="m139.363 148.277c32.66-21.23 71.48-33.74 113.12-34.24-41.44-113.837-38.118-105.517-39.99-107.99-2.359-3.202-6.173-5.544-10.59-5.96-1.083-.099-95.397-.136-96.61.01-8.508.806-14.569 8.817-13.32 17.07.389 2.497-2.428-5.745 47.39 131.11z" fill="#ffffff" data-original="#000000" style="" class=""/><path d="m417.423 20.207c3.198-8.756-2.226-18.526-11.93-20.04-1.755-.264-96.095-.146-96.55-.11-6.243 0-10.256 4.828-10.36 4.88-2.177 2.452 1.109-6.3-40.9 109.1 41.64.5 80.46 13.01 113.12 34.24z" fill="#ffffff" data-original="#000000" style="" class=""/><path d="m282.704 328.697 22.33-16.44h-27.38c-6.52 0-12.29-4.21-14.28-10.42l-8.29-25.85-8.29 25.85c-1.99 6.21-7.76 10.42-14.28 10.42h-27.38l22.33 16.44c5.18 3.82 7.35 10.53 5.38 16.66l-8.42 26.26c34.559-25.447 26.756-25.451 61.32 0l-8.42-26.26c-1.971-6.13.199-12.84 5.38-16.66z" fill="#ffffff" data-original="#000000" style="" class=""/><path d="m255.083 144.017c-80.163 0-148.866 51.947-173.37 124.37-40.021 117.633 47.836 241.63 173.37 241.63 100.9 0 184.155-82.313 182.98-185.65-1.65-98.707-81.909-180.35-182.98-180.35zm104.51 165.32-50.41 37.13 19.28 60.14c4.451 13.843-11.589 25.214-23.17 16.66l-50.21-36.97-50.21 36.97c-11.652 8.6-27.614-2.838-23.17-16.66l19.28-60.14-50.41-37.13c-11.631-8.556-5.554-27.08 8.89-27.08h62.11l19.23-59.99c4.434-13.837 24.116-13.869 28.56 0l19.23 59.99h62.11c14.44 0 20.524 18.522 8.89 27.08z" fill="#ffffff" data-original="#000000" style="" class=""/></g></g></svg>
